<svg
  width="24"
  height="24"
  viewBox="0 0 24 24"
  fill="#ff5722"
  xmlns="http://www.w3.org/2000/svg"
>
  <path
    d="M12 2C6.48 2 2 6.48 2 12C2 15.86 4.14 19.14 7.33 20.82V22C7.33 22.55 7.79 23 8.34 23H15.66C16.21 23 16.67 22.55 16.67 22V20.82C19.86 19.14 22 15.86 22 12C22 6.48 17.52 2 12 2ZM10 20V18H14V20H10ZM16 16H8C7.45 16 7 15.55 7 15C7 14.45 7.45 14 8 14H16C16.55 14 17 14.45 17 15C17 15.55 16.55 16 16 16ZM9 11C8.45 11 8 10.55 8 10C8 9.45 8.45 9 9 9C9.55 9 10 9.45 10 10C10 10.55 9.55 11 9 11ZM15 11C14.45 11 14 10.55 14 10C14 9.45 14.45 9 15 9C15.55 9 16 9.45 16 10C16 10.55 15.55 11 15 11Z"
  />
</svg>